<?xml version="1.0" encoding="utf-8"?>
<svg xmlns="http://www.w3.org/2000/svg" width="599" height="462" viewBox="0 0 599 462" version="1.1">
  <path d="M 134.277 78.239 C 59.987 34.933 8.658 110.919 19.928 196.5 C 26.793 248.623 65.162 275.33 116.618 263.801 C 119.737 263.103 119.737 263.103 120.3 281.301 C 121.815 330.219 143.293 368.263 185 395.904 C 269.649 452.006 412.986 444.383 476.77 387.192 C 524.862 340.295 497.705 227.95 492.697 217.434 C 534.635 215.114 552.218 168.909 539.708 113.714 C 529.383 68.16 478.027 23.952 436.408 51.051 C 403.262 24.055 168.683 11.322 134.277 78.239 Z M 426.396 176.359 C 394.413 186.831 397.182 233.131 430.198 239.944 C 455.027 245.068 476.083 219.767 467.011 195.711 C 461.238 180.407 442.013 171.246 426.396 176.359 Z M 224.5 183.407 C 198.16 189.922 181.83 216.731 188.531 242.458 C 200.194 287.236 259.162 292.848 279.774 251.142 C 297.291 215.7 263.139 173.85 224.5 183.407 Z M 354.289 248.473 C 317.831 266.809 311.588 340.404 343.772 372.448 C 363.448 392.038 390.279 385.214 404.513 357 C 431.885 302.746 396.86 227.062 354.289 248.473 Z" stroke="none" fill="#040404" fill-rule="evenodd"/>
</svg>